<?xml version="1.0" encoding="UTF-8" standalone="no"?>
<svg width="717px" height="52px" viewBox="0 0 717 52" version="1.1" xmlns="http://www.w3.org/2000/svg" xmlns:xlink="http://www.w3.org/1999/xlink" xmlns:sketch="http://www.bohemiancoding.com/sketch/ns">
    <!-- Generator: Sketch 3.3.2 (12043) - http://www.bohemiancoding.com/sketch -->
    <title>icons and buttons 1</title>
    <desc>Created with Sketch.</desc>
    <defs>
        <filter x="-50%" y="-50%" width="200%" height="200%" filterUnits="objectBoundingBox" id="filter-1">
            <feOffset dx="1" dy="2" in="SourceAlpha" result="shadowOffsetOuter1"></feOffset>
            <feGaussianBlur stdDeviation="0" in="shadowOffsetOuter1" result="shadowBlurOuter1"></feGaussianBlur>
            <feColorMatrix values="0 0 0 0 0.682352941   0 0 0 0 0.22745098   0 0 0 0 0.164705882  0 0 0 0.7 0" in="shadowBlurOuter1" type="matrix" result="shadowMatrixOuter1"></feColorMatrix>
            <feMerge>
                <feMergeNode in="shadowMatrixOuter1"></feMergeNode>
                <feMergeNode in="SourceGraphic"></feMergeNode>
            </feMerge>
        </filter>
        <filter x="-50%" y="-50%" width="200%" height="200%" filterUnits="objectBoundingBox" id="filter-2">
            <feOffset dx="1" dy="2" in="SourceAlpha" result="shadowOffsetOuter1"></feOffset>
            <feGaussianBlur stdDeviation="0" in="shadowOffsetOuter1" result="shadowBlurOuter1"></feGaussianBlur>
            <feColorMatrix values="0 0 0 0 0.530054209   0 0 0 0 0.530054209   0 0 0 0 0.530054209  0 0 0 0.7 0" in="shadowBlurOuter1" type="matrix" result="shadowMatrixOuter1"></feColorMatrix>
            <feMerge>
                <feMergeNode in="shadowMatrixOuter1"></feMergeNode>
                <feMergeNode in="SourceGraphic"></feMergeNode>
            </feMerge>
        </filter>
    </defs>
    <g id="V1.2" stroke="none" stroke-width="1" fill="none" fill-rule="evenodd" sketch:type="MSPage">
        <g id="icons-and-buttons-1" sketch:type="MSArtboardGroup">
            <g id="birthday20" sketch:type="MSLayerGroup" transform="translate(205.000000, 1.000000)" fill="#000000">
                <g id="cake" sketch:type="MSShapeGroup">
                    <path d="M25,10.2272727 C26.8181818,10.2272727 28.4090909,8.63636364 28.4090909,6.81818182 C28.4090909,6.13636364 28.1818182,5.68181818 27.9545455,5 L25,0 L22.0454545,5 C21.8181818,5.45454545 21.5909091,6.13636364 21.5909091,6.81818182 C21.5909091,8.63636364 23.1818182,10.2272727 25,10.2272727 L25,10.2272727 Z M39.7727273,15.9090909 L27.2727273,15.9090909 L27.2727273,12.5 L22.7272727,12.5 L22.7272727,15.9090909 L10.2272727,15.9090909 C4.54545455,15.9090909 0,20.4545455 0,26.1363636 C0,29.7727273 1.81818182,32.7272727 4.54545455,34.5454545 L4.54545455,50 L45.4545455,50 L45.4545455,34.5454545 C48.1818182,32.7273619 50,29.5454545 50,26.1363636 C50,20.4545455 45.4545455,15.9090909 39.7727273,15.9090909 L39.7727273,15.9090909 Z M39.7727273,31.8181818 C38.1818182,31.8181818 36.8181818,31.1363636 35.6818182,30.2272727 L32.2727273,26.8181818 L28.8636364,30.2272727 C27.9545455,31.1363636 26.5909091,31.8181818 25,31.8181818 C23.4090909,31.8181818 22.0454545,31.1363636 20.9090909,30.2272727 L17.5,26.8181818 L14.0909091,30.2272727 C13.1818182,31.1363636 11.8181818,31.8181818 10.2272727,31.8181818 C7.04545455,31.8181818 4.54545455,29.3181818 4.54545455,26.1363636 C4.54545455,22.9545455 7.04545455,20.4545455 10.2272727,20.4545455 L39.7727273,20.4545455 C42.9545455,20.4545455 45.4545455,22.9545455 45.4545455,26.1363636 C45.4545455,29.3181818 42.9545455,31.8181818 39.7727273,31.8181818 L39.7727273,31.8181818 Z" id="Shape"></path>
                </g>
            </g>
            <g id="envelope14" sketch:type="MSLayerGroup" transform="translate(52.000000, 9.737864)" fill="#000000">
                <g id="Group" sketch:type="MSShapeGroup">
                    <path d="M24.7877023,0.0336569579 C18.7097087,0.217152104 3.75210356,8.94255663 1.4066343,10.3330097 L0.115210356,15.6184466 L6.62588997,20.2800971 L5.37459547,15.9095469 L36.0574434,7.12508091 L40.4093851,22.3271845 L49.810356,15.6393204 L48.1915858,10.3483819 C45.9300971,9.00582524 30.886246,0.217152104 24.7877023,0.0336569579 L24.7877023,0.0336569579 Z" id="Shape"></path>
                    <path d="M49.9559871,41.184466 L49.9559871,27.2166667 L49.9559871,21.5677994 L49.9559871,17.6788026 L49.6454693,17.8998382 L40.9194175,24.1080906 L35.9386731,27.6517799 L36.6597087,28.3608414 L37.531068,29.2202265 L38.4022654,30.0786408 L39.455178,31.1145631 L49.6796117,41.184466 L49.9559871,41.184466 Z" id="Shape"></path>
                    <path d="M0,17.8665049 L0,19.9391586 L0,41.184466 L0.239320388,41.184466 L9.8433657,31.515534 L10.7875405,30.5650485 L11.6710356,29.6749191 L12.5546926,28.7849515 L13.7796117,27.5519417 L7.39983819,22.9841424 L1.31828479,18.6302589 L0,17.6859223 L0,17.8665049 Z" id="Shape"></path>
                    <path d="M37.5250809,31.6674757 L35.9567961,30.1229773 L35.0846278,29.2635922 L34.2124595,28.4043689 L33.988835,28.1833333 L33.1006472,27.3095469 L32.9462783,27.157767 C32.6875405,26.9027508 32.4171521,26.663754 32.1389968,26.4359223 C30.071521,24.7438511 27.5022654,23.8213592 24.7928803,23.8213592 C22.0797735,23.8213592 19.5152104,24.7420712 17.4475728,26.4325243 C17.1339806,26.6885113 16.8305825,26.9608414 16.5417476,27.2509709 L16.4877023,27.3056634 L15.6199029,28.179288 L15.0613269,28.7423948 L14.1781553,29.6315534 L13.2946602,30.520712 L10.394822,33.4407767 L2.74498382,41.1419094 L47.1456311,41.1419094 L37.5250809,31.6674757 L37.5250809,31.6674757 Z" id="Shape"></path>
                </g>
            </g>
            <g id="gear39" sketch:type="MSLayerGroup" transform="translate(154.000000, 1.000000)" fill="#000000">
                <g id="Settings" sketch:type="MSShapeGroup">
                    <path d="M49.7992565,22.2046468 C49.7202602,21.5024164 48.901487,20.9747212 48.1934944,20.9747212 C45.904461,20.9747212 43.8732342,19.6306691 43.0213755,17.5520446 C42.1511152,15.4230483 42.7122677,12.9401487 44.4182156,11.3752788 C44.9552045,10.8843866 45.0204461,10.0626394 44.5700743,9.49182156 C43.398513,8.00408922 42.0669145,6.66022305 40.6130112,5.49553903 C40.0436803,5.03866171 39.2083643,5.10223048 38.714684,5.64888476 C37.2258364,7.29776952 34.551487,7.9105948 32.4849442,7.04832714 C30.3343866,6.1436803 28.9782528,3.96449814 29.1109665,1.62527881 C29.1546468,0.890520446 28.617658,0.251672862 27.8851301,0.166356877 C26.0193309,-0.0494423792 24.1371747,-0.056133829 22.2657993,0.151486989 C21.5416357,0.231412639 21.0046468,0.855204461 21.0289963,1.58066914 C21.1104089,3.89684015 19.7379182,6.03791822 17.6087361,6.91003717 C15.5669145,7.74405204 12.9113383,7.13643123 11.4254647,5.50223048 C10.9343866,4.96394052 10.1126394,4.89776952 9.54052045,5.3436803 C8.04349442,6.51821561 6.68197026,7.86319703 5.49962825,9.33866171 C5.03847584,9.91226766 5.1063197,10.7436803 5.64869888,11.2371747 C7.38717472,12.8115242 7.94851301,15.3159851 7.04535316,17.4695167 C6.1830855,19.5226766 4.05111524,20.8459108 1.61040892,20.8459108 C0.818401487,20.8204461 0.254275093,21.3520446 0.167657993,22.072119 C-0.0520446097,23.9486989 -0.0546468401,25.8607807 0.156877323,27.7526022 C0.235315985,28.4578067 1.07899628,28.980855 1.79479554,28.980855 C3.96988848,28.9252788 6.05817844,30.2719331 6.93420074,32.4037175 C7.80743494,34.5327138 7.24609665,37.0141264 5.53754647,38.5802974 C5.00315985,39.0711896 4.93531599,39.8916357 5.38568773,40.4624535 C6.54628253,41.9407063 7.87806691,43.2858736 9.33717472,44.460223 C9.90947955,44.9213755 10.7421933,44.8563197 11.23829,44.3096654 C12.7327138,42.6566914 15.4068773,42.0449814 17.4652416,42.9089219 C19.6211896,43.8107807 20.9773234,45.989777 20.8446097,48.3302974 C20.8013011,49.0654275 21.3408922,49.7053903 22.0704461,49.7894052 C23.0249071,49.9007435 23.9851301,49.9563197 24.9479554,49.9563197 C25.8618959,49.9563197 26.7760223,49.9061338 27.6899628,49.804461 C28.4143123,49.7245353 28.9509294,49.1007435 28.9265799,48.3739777 C28.8427509,46.0591078 30.217658,43.9180297 32.344052,43.0473978 C34.3996283,42.2078067 37.044052,42.8223048 38.5301115,44.4548327 C39.0239777,44.9920074 39.8399628,45.0568773 40.4152416,44.6124535 C41.9094796,43.4407063 43.2682156,42.0968401 44.4561338,40.6172862 C44.9171004,40.0449814 44.8520446,39.2122677 44.3068773,38.7189591 C42.5684015,37.1446097 42.0042751,34.639777 42.9074349,32.4877323 C43.7565056,30.4618959 45.8092937,29.1016729 48.0172862,29.1016729 L48.3262082,29.1096654 C49.0423792,29.1678439 49.7013011,28.616171 49.7881041,27.8851301 C50.0081784,26.0068773 50.0107807,24.0964684 49.7992565,22.2046468 L49.7992565,22.2046468 Z M25.017658,33.3626394 C20.4232342,33.3626394 16.6860595,29.6254647 16.6860595,25.0310409 C16.6860595,20.436803 20.4232342,16.6994424 25.017658,16.6994424 C29.6118959,16.6994424 33.3490706,20.436803 33.3490706,25.0310409 C33.3490706,29.6254647 29.6118959,33.3626394 25.017658,33.3626394 L25.017658,33.3626394 Z" id="Shape"></path>
                </g>
            </g>
            <g id="ic_check_circle_black_24px" sketch:type="MSLayerGroup" transform="translate(355.000000, 2.000000)">
                <path d="M0,0 L50,0 L50,50 L0,50 L0,0 Z" id="Shape" sketch:type="MSShapeGroup"></path>
                <path d="M25,4.16666667 C13.5,4.16666667 4.16666667,13.5 4.16666667,25 C4.16666667,36.5 13.5,45.8333333 25,45.8333333 C36.5,45.8333333 45.8333333,36.5 45.8333333,25 C45.8333333,13.5 36.5,4.16666667 25,4.16666667 L25,4.16666667 Z M20.8333333,35.4166667 L10.4166667,25 L13.3541667,22.0625 L20.8333333,29.5208333 L36.6458333,13.7083333 L39.5833333,16.6666667 L20.8333333,35.4166667 L20.8333333,35.4166667 Z" id="Shape" fill="#000000" sketch:type="MSShapeGroup"></path>
            </g>
            <g id="ic_expand_more_black_24px" sketch:type="MSLayerGroup" transform="translate(446.000000, 5.000000)">
                <path d="M34.5625,17.8958333 L25,27.4375 L15.4375,17.8958333 L12.5,20.8333333 L25,33.3333333 L37.5,20.8333333 L34.5625,17.8958333 Z" id="Shape" fill="#000000" sketch:type="MSShapeGroup"></path>
                <path d="M0,0 L50,0 L50,50 L0,50 L0,0 Z" id="Shape" sketch:type="MSShapeGroup"></path>
            </g>
            <g id="ic_insert_invitation_black_24px" sketch:type="MSLayerGroup" transform="translate(396.000000, 5.000000)">
                <path d="M35.4166667,25 L25,25 L25,35.4166667 L35.4166667,35.4166667 L35.4166667,25 L35.4166667,25 Z M33.3333333,2.08333333 L33.3333333,6.25 L16.6666667,6.25 L16.6666667,2.08333333 L12.5,2.08333333 L12.5,6.25 L10.4166667,6.25 C8.10416667,6.25 6.27083333,8.125 6.27083333,10.4166667 L6.25,39.5833333 C6.25,41.875 8.10416667,43.75 10.4166667,43.75 L39.5833333,43.75 C41.875,43.75 43.75,41.875 43.75,39.5833333 L43.75,10.4166667 C43.75,8.125 41.875,6.25 39.5833333,6.25 L37.5,6.25 L37.5,2.08333333 L33.3333333,2.08333333 L33.3333333,2.08333333 Z M39.5833333,39.5833333 L10.4166667,39.5833333 L10.4166667,16.6666667 L39.5833333,16.6666667 L39.5833333,39.5833333 L39.5833333,39.5833333 Z" id="Shape" fill="#000000" sketch:type="MSShapeGroup"></path>
                <path d="M0,0 L50,0 L50,50 L0,50 L0,0 Z" id="Shape" sketch:type="MSShapeGroup"></path>
            </g>
            <g id="ic_mode_edit_black_24px" sketch:type="MSLayerGroup" transform="translate(255.000000, 3.000000)">
                <path d="M6.25,35.9375 L6.25,43.75 L14.0625,43.75 L37.1041667,20.7083333 L29.2916667,12.8958333 L6.25,35.9375 L6.25,35.9375 Z M43.1458333,14.6666667 C43.9583333,13.8541667 43.9583333,12.5416667 43.1458333,11.7291667 L38.2708333,6.85416667 C37.4583333,6.04166667 36.1458333,6.04166667 35.3333333,6.85416667 L31.5208333,10.6666667 L39.3333333,18.4791667 L43.1458333,14.6666667 L43.1458333,14.6666667 Z" id="Shape" fill="#000000" sketch:type="MSShapeGroup"></path>
                <path d="M0,0 L50,0 L50,50 L0,50 L0,0 Z" id="Shape" sketch:type="MSShapeGroup"></path>
            </g>
            <path d="M19.5714286,1 C29.8281454,1 38.1428571,9.31471179 38.1428571,19.5714286 C38.1428571,24.1714286 36.4571429,28.4 33.6857143,31.6571429 L34.4571429,32.4285714 L36.7142857,32.4285714 L51,46.7142857 L46.7142857,51 L32.4285714,36.7142857 L32.4285714,34.4571429 L31.6571429,33.6857143 C28.4,36.4571429 24.1714286,38.1428571 19.5714286,38.1428571 C9.31471179,38.1428571 1,29.8281454 1,19.5714286 C1,9.31471179 9.31471179,1 19.5714286,1 L19.5714286,1 Z M19.5714286,6.71428571 C12.4285714,6.71428571 6.71428571,12.4285714 6.71428571,19.5714286 C6.71428571,26.7142857 12.4285714,32.4285714 19.5714286,32.4285714 C26.7142857,32.4285714 32.4285714,26.7142857 32.4285714,19.5714286 C32.4285714,12.4285714 26.7142857,6.71428571 19.5714286,6.71428571 L19.5714286,6.71428571 Z" id="Shape" fill="#000000" sketch:type="MSShapeGroup"></path>
            <g id="multiple25" sketch:type="MSLayerGroup" transform="translate(305.000000, 7.012346)" fill="#000000">
                <path d="M29.8487654,7.35925926 C32.1358025,8.79320988 33.7395062,11.2197531 34.0314815,14.0364198 C34.9641975,14.4722222 35.9993827,14.7228395 37.0969136,14.7228395 C41.1037037,14.7228395 44.3512346,11.4753086 44.3512346,7.4691358 C44.3512346,3.46234568 41.1037037,0.214814815 37.0969136,0.214814815 C33.1283951,0.216049383 29.9092593,3.40555556 29.8487654,7.35925926 L29.8487654,7.35925926 Z M25.0962963,22.2123457 C29.1030864,22.2123457 32.3506173,18.9641975 32.3506173,14.9580247 C32.3506173,10.9518519 29.1024691,7.70432099 25.0962963,7.70432099 C21.0901235,7.70432099 17.8407407,10.9524691 17.8407407,14.958642 C17.8407407,18.9648148 21.0901235,22.2123457 25.0962963,22.2123457 L25.0962963,22.2123457 Z M28.1734568,22.7067901 L22.0179012,22.7067901 C16.8962963,22.7067901 12.7296296,26.8740741 12.7296296,31.995679 L12.7296296,39.5234568 L12.7487654,39.641358 L13.267284,39.8037037 C18.1549383,41.3308642 22.4012346,41.8401235 25.8962963,41.8401235 C32.7228395,41.8401235 36.6796296,39.8938272 36.9234568,39.7697531 L37.4080247,39.5246914 L37.4598765,39.5246914 L37.4598765,31.995679 C37.4617284,26.8740741 33.2950617,22.7067901 28.1734568,22.7067901 L28.1734568,22.7067901 Z M40.1753086,15.2179012 L34.067284,15.2179012 C34.0012346,17.6617284 32.9580247,19.8623457 31.3080247,21.4450617 C35.8604938,22.7987654 39.191358,27.0203704 39.191358,32.0067901 L39.191358,34.3265432 C45.2222222,34.1055556 48.6975309,32.3962963 48.9265432,32.2814815 L49.4111111,32.0358025 L49.462963,32.0358025 L49.462963,24.5055556 C49.462963,19.3845679 45.2962963,15.2179012 40.1753086,15.2179012 L40.1753086,15.2179012 Z M12.367284,14.7240741 C13.7864198,14.7240741 15.1067901,14.3098765 16.2253086,13.604321 C16.5808642,11.2851852 17.8240741,9.25864198 19.6,7.87839506 C19.6074074,7.74259259 19.6203704,7.60802469 19.6203704,7.47098765 C19.6203704,3.46419753 16.3722222,0.216666667 12.367284,0.216666667 C8.35987654,0.216666667 5.11296296,3.46419753 5.11296296,7.47098765 C5.11296296,11.4759259 8.35987654,14.7240741 12.367284,14.7240741 L12.367284,14.7240741 Z M18.8820988,21.4450617 C17.2401235,19.8703704 16.2006173,17.6814815 16.1246914,15.2524691 C15.8981481,15.2358025 15.6740741,15.2179012 15.4432099,15.2179012 L9.2882716,15.2179012 C4.16666667,15.2179012 0,19.3845679 0,24.5055556 L0,32.0345679 L0.0191358025,32.1506173 L0.537654321,32.3141975 C4.45864198,33.5382716 7.95802469,34.1024691 10.9975309,34.2802469 L10.9975309,32.0067901 C10.9987654,27.0203704 14.3283951,22.8 18.8820988,21.4450617 L18.8820988,21.4450617 Z" id="Shape" sketch:type="MSShapeGroup"></path>
            </g>
            <g id="paper20" sketch:type="MSLayerGroup" transform="translate(103.000000, 3.000000)" fill="#000000">
                <g id="Group" sketch:type="MSShapeGroup">
                    <path d="M47.0518519,1.10848806 L3.15925926,24.1862069 C1.3537037,25.1350133 1.42777778,26.5257294 3.32222222,27.2777188 L8.92592593,29.4984085 C10.8166667,30.2485411 13.6833333,29.8419098 15.2907407,28.5811671 L39.6277778,9.33952255 C41.2277778,8.07506631 41.4,8.26259947 40.0092593,9.75543767 L20.7685185,30.4082228 C19.3740741,31.8954907 19.7888889,33.7188329 21.6851852,34.4596817 L22.3407407,34.7177719 C24.237037,35.4530504 27.337037,36.6896552 29.2240741,37.462069 L35.4388889,39.9984085 C37.3277778,40.7689655 38.8722222,41.4076923 38.8722222,41.4188329 C38.8722222,41.4299735 38.8833333,41.465252 38.8925926,41.4671088 C38.9018519,41.4708223 39.3481481,39.8628647 39.8814815,37.8909814 L49.3592593,2.97082228 C49.8925926,0.997082228 48.8574074,0.161538462 47.0518519,1.10848806 L47.0518519,1.10848806 Z" id="Shape"></path>
                    <path d="M20.9703704,36.801061 L16.6703704,35.0371353 C14.7851852,34.2628647 13.8814815,35.1708223 14.662963,37.0591512 C14.6648148,37.0591512 18.6555556,46.703183 18.5444444,47.0429708 C18.4296296,47.3809019 22.3740741,41.3204244 22.3740741,41.3204244 C23.4888889,39.6084881 22.8555556,37.5753316 20.9703704,36.801061 L20.9703704,36.801061 Z" id="Shape"></path>
                </g>
            </g>
            <rect id="Rectangle-92-Copy-4" fill="#D86252" filter="url(#filter-1)" sketch:type="MSShapeGroup" x="610" y="15" width="104" height="30" rx="2"></rect>
            <rect id="Rectangle-92-Copy-3" fill="#BDBBBB" filter="url(#filter-2)" sketch:type="MSShapeGroup" x="496" y="15" width="104" height="30" rx="2"></rect>
        </g>
    </g>
</svg>